<svg width="36" height="40" viewBox="0 0 36 40" fill="none" xmlns="http://www.w3.org/2000/svg">
<path fill-rule="evenodd" clip-rule="evenodd" d="M31.6838 17.26C31.6835 16.834 31.6821 16.413 31.6806 15.996V15.995C31.6768 14.921 31.6731 13.872 31.6906 12.823C31.698 12.383 31.5392 12.136 31.1587 11.919C26.9566 9.52697 22.761 7.12297 18.5716 4.70897C18.1954 4.49197 17.8998 4.47295 17.5121 4.69295C13.2107 7.13695 8.90454 9.57395 4.58411 11.9849C4.11026 12.2499 4.06387 12.589 4.06468 13.036C4.07233 17.252 4.07493 21.469 4.07752 25.685L4.07986 29.303C4.08056 30.284 4.08056 30.285 3.07141 30.285C2.83696 30.285 2.60244 30.283 2.36793 30.281C1.83124 30.277 1.29455 30.2719 0.758691 30.2909C0.19452 30.3109 0.0172159 30.084 0.0200769 29.535C0.0365174 26.384 0.033742 23.233 0.0309665 20.083L0.0298184 18.713C0.0294451 18.217 0.0294567 17.721 0.0294682 17.225C0.0295169 15.121 0.0295657 13.018 0.000290622 10.915C-0.00853327 10.282 0.182204 9.90798 0.760406 9.58397C6.29828 6.47997 11.8224 3.35297 17.337 0.208975C17.893 -0.108025 18.3143 -0.0420517 18.8352 0.256948C24.2446 3.35795 29.662 6.44596 35.0863 9.52196C35.5806 9.80296 35.7643 10.1409 35.7631 10.7049C35.7494 16.8669 35.7519 23.029 35.7769 29.19C35.7794 29.786 35.5826 30.1529 35.0644 30.4249C34.5801 30.6799 34.1032 30.948 33.6263 31.216C33.2564 31.425 32.8861 31.633 32.5127 31.834C31.8645 32.184 31.7146 32.102 31.7103 31.376C31.702 29.969 31.7015 28.563 31.7009 27.157V27.156C31.7006 26.479 31.7003 25.801 31.6992 25.124C31.6963 23.38 31.6927 21.636 31.6891 19.872L31.6838 17.26ZM27.9731 22.411V22.414V22.415C27.9738 26.116 27.9745 29.789 27.9983 33.461C28.0026 34.139 27.7625 34.546 27.1781 34.85C26.6476 35.125 26.1262 35.4179 25.6047 35.7099C25.2787 35.8929 24.9524 36.076 24.624 36.255C23.9963 36.596 23.8849 36.537 23.8829 35.828C23.878 34.032 23.8792 32.236 23.8805 30.44V30.43C23.881 29.697 23.8815 28.9639 23.8816 28.2309C23.8818 26.5459 23.8817 24.861 23.8817 23.151V23.137L23.8816 20.8389C23.8124 20.8559 23.7487 20.869 23.6899 20.88C23.5767 20.902 23.4821 20.921 23.403 20.966C23.2199 21.07 23.0365 21.174 22.853 21.278C22.0139 21.753 21.1744 22.229 20.3647 22.749C20.138 22.895 19.9525 23.279 19.9476 23.557C19.9128 25.529 19.9054 27.5009 19.9444 29.4719C19.9576 30.1389 19.7153 30.337 19.0752 30.302C18.2611 30.258 17.4418 30.261 16.627 30.2959C16.0538 30.32 15.8304 30.16 15.8414 29.545C15.8602 28.488 15.8562 27.429 15.8521 26.371C15.8486 25.457 15.8451 24.544 15.8563 23.63C15.8627 23.119 15.714 22.802 15.2479 22.558C14.4927 22.163 13.7499 21.7439 12.9539 21.2959C12.6184 21.107 12.2733 20.913 11.914 20.713L11.9139 21.068C11.9139 21.26 11.9138 21.41 11.9141 21.56C11.9153 22.268 11.9151 22.976 11.9148 23.684C11.9142 25.62 11.9135 27.556 11.9433 29.492C11.9531 30.133 11.727 30.312 11.1244 30.29C10.2413 30.256 9.35566 30.269 8.47167 30.288C8.01289 30.298 7.83116 30.141 7.83193 29.665C7.83506 27.754 7.83438 25.844 7.8337 23.933C7.83263 20.936 7.83156 17.94 7.84516 14.943C7.84638 14.674 8.06577 14.292 8.29899 14.157C11.348 12.39 14.4112 10.6459 17.4942 8.93795C17.7654 8.78695 18.2733 8.79895 18.549 8.95095C20.4931 10.0249 22.4257 11.119 24.3583 12.213C25.3749 12.789 26.392 13.364 27.4103 13.937C27.8102 14.161 27.9847 14.444 27.9766 14.907C27.9604 15.834 27.9642 16.7619 27.9682 17.7139C27.9698 18.0959 27.9714 18.4819 27.9717 18.8729C27.9727 20.0559 27.9729 21.235 27.9731 22.411ZM18.3499 13.522C18.2652 13.522 18.1766 13.5139 18.0879 13.5069C17.8937 13.4899 17.6995 13.473 17.5481 13.544C17.1112 13.75 16.6925 13.994 16.2737 14.237L16.2735 14.238C16.0872 14.346 15.901 14.454 15.7131 14.559C14.9594 14.981 14.2049 15.401 13.4228 15.836L12.4033 16.404C12.4966 16.466 12.5786 16.522 12.6536 16.573C12.7972 16.672 12.9156 16.753 13.0404 16.822C13.5143 17.088 13.9896 17.351 14.4648 17.614L14.4652 17.615C15.4304 18.149 16.396 18.684 17.3506 19.236C17.7641 19.476 18.0895 19.434 18.4769 19.212C19.4035 18.68 20.3351 18.157 21.2667 17.634C21.8101 17.329 22.3541 17.023 22.8966 16.717C22.9939 16.662 23.0838 16.594 23.1968 16.509C23.2571 16.463 23.3241 16.4119 23.4024 16.3559C21.6969 15.4009 20.067 14.487 18.3499 13.522ZM17.9067 39.866C18.0009 39.871 18.0966 39.876 18.1922 39.885C18.4218 39.753 18.6486 39.624 18.873 39.496C19.4768 39.152 20.0629 38.818 20.6369 38.465C21.4354 37.974 21.4216 37.632 20.6084 37.18C18.6166 36.073 16.6231 34.9689 14.6246 33.8729C14.3921 33.7459 14.1256 33.603 13.873 33.599C11.9939 33.573 10.1143 33.572 8.23501 33.584C7.79992 33.587 7.63417 33.976 7.90503 34.331C8.02242 34.485 8.20859 34.598 8.38205 34.698C8.68342 34.872 8.98477 35.046 9.28613 35.219C11.8966 36.725 14.5071 38.2309 17.131 39.7139C17.3443 39.8339 17.6185 39.85 17.9067 39.866Z" fill="#FDB432"/>
</svg>
