<svg width="197" height="148" viewBox="0 0 197 148" fill="none" xmlns="http://www.w3.org/2000/svg">
<path d="M132.595 39.0011C132.593 35.5582 132.555 32.2666 132.61 28.9764C132.627 27.9821 132.268 27.4226 131.408 26.9331C121.913 21.527 112.432 16.0953 102.966 10.64C102.115 10.1501 101.447 10.1064 100.572 10.6042C90.8517 16.1276 81.1206 21.6333 71.3586 27.0822C70.2876 27.6798 70.1827 28.4466 70.1847 29.4566C70.2067 41.7093 70.2096 53.9621 70.2186 66.2149C70.2206 68.4343 70.2217 68.4347 67.9397 68.4344C66.1977 68.4342 64.4537 68.3867 62.7137 68.4474C61.4397 68.4919 61.0387 67.9792 61.0447 66.7395C61.0877 58.5881 61.0737 50.4363 61.0667 42.2847C61.0627 36.4114 61.0817 30.5377 61.0007 24.6653C60.9807 23.2331 61.4117 22.3882 62.7177 21.656C75.2317 14.6432 87.7146 7.57605 100.176 0.47229C101.432 -0.243975 102.384 -0.0950271 103.561 0.579952C115.785 7.58875 128.026 14.5665 140.283 21.5172C141.4 22.1506 141.815 22.9161 141.813 24.1894C141.782 38.113 141.787 52.0368 141.844 65.9603C141.849 67.3072 141.405 68.1355 140.234 68.751C138.29 69.7724 136.4 70.8914 134.468 71.9349C133.003 72.726 132.664 72.5399 132.655 70.8985C132.627 66.1899 132.637 61.4811 132.63 56.7724C132.62 50.8993 132.607 45.0261 132.595 39.0011Z" fill="#EBB452"/>
<path d="M124.207 42.6468C124.216 53.7358 124.196 64.6729 124.267 75.6096C124.277 77.1424 123.734 78.0634 122.413 78.7487C120.465 79.7599 118.571 80.8735 116.642 81.9233C115.224 82.6955 114.972 82.5621 114.967 80.9583C114.952 75.2367 114.964 69.515 114.964 63.7934C114.965 58.2803 114.964 52.7672 114.964 47.0884C114.507 47.2049 114.154 47.2207 113.883 47.3754C111.577 48.6902 109.247 49.9729 107.017 51.4062C106.505 51.7354 106.086 52.6036 106.075 53.2315C105.996 57.6859 105.98 62.1435 106.068 66.5976C106.097 68.1043 105.55 68.5506 104.103 68.472C102.264 68.3719 100.413 68.3796 98.5706 68.4579C97.2756 68.513 96.7706 68.1515 96.7956 66.7624C96.8756 62.3081 96.7746 57.8509 96.8296 53.3959C96.8436 52.2407 96.5076 51.5258 95.4546 50.9742C93.0286 49.7039 90.6596 48.3288 87.9216 46.8036C87.9216 47.6741 87.9206 48.1959 87.9216 48.7178C87.9316 54.6926 87.8956 60.6681 87.9876 66.6417C88.0096 68.0906 87.4986 68.4957 86.1376 68.4445C84.1416 68.3693 82.1406 68.3973 80.1426 68.4411C79.1056 68.4637 78.6956 68.1078 78.6976 67.0325C78.7156 55.9436 78.6766 44.8546 78.7266 33.766C78.7296 33.1591 79.2256 32.2945 79.7526 31.9891C86.6426 27.9963 93.5646 24.0561 100.531 20.196C101.144 19.8564 102.292 19.882 102.915 20.2261C109.619 23.9286 116.262 27.7386 122.938 31.4921C123.842 32.0002 124.236 32.6394 124.218 33.6852C124.166 36.6209 124.204 39.5582 124.207 42.6468ZM102.465 30.5543C101.855 30.5589 101.151 30.3699 100.653 30.605C99.2256 31.2779 97.8856 32.1277 96.5056 32.8992C94.0756 34.2586 91.6406 35.6114 89.0266 37.068C89.6416 37.474 90.0376 37.7728 90.4666 38.0131C93.7136 39.8309 96.9866 41.6045 100.207 43.4678C101.141 44.0086 101.876 43.9141 102.752 43.4119C106.067 41.5099 109.411 39.6559 112.739 37.7739C113.076 37.5831 113.374 37.3244 113.882 36.9597C110.028 34.8005 106.345 32.7368 102.465 30.5543Z" fill="#EBB452"/>
<path d="M102.108 90.1271C101.232 90.0436 100.35 90.1013 99.7097 89.7399C93.0967 86.0026 86.5207 82.2003 79.9407 78.4056C79.5487 78.1795 79.1277 77.9246 78.8627 77.5771C78.2507 76.7755 78.6247 75.8962 79.6077 75.8896C83.8547 75.8607 88.1017 75.8643 92.3477 75.923C92.9187 75.9309 93.5207 76.2545 94.0467 76.5426C98.5627 79.0179 103.067 81.5129 107.568 84.0146C109.406 85.0359 109.437 85.8087 107.632 86.9185C105.853 88.0127 104.023 89.0253 102.108 90.1271Z" fill="#EBB452"/>
<path d="M0 141.26V120.26H4.01999L12.96 135.08H10.83L19.62 120.26H23.61L23.67 141.26H19.11L19.08 127.25H19.92L12.9 139.04H10.71L3.53999 127.25H4.56V141.26H0ZM36.003 141.5C34.283 141.5 32.753 141.14 31.413 140.42C30.093 139.7 29.043 138.72 28.263 137.48C27.503 136.22 27.123 134.79 27.123 133.19C27.123 131.57 27.503 130.14 28.263 128.9C29.043 127.64 30.093 126.66 31.413 125.96C32.753 125.24 34.283 124.88 36.003 124.88C37.703 124.88 39.223 125.24 40.563 125.96C41.903 126.66 42.953 127.63 43.713 128.87C44.473 130.11 44.853 131.55 44.853 133.19C44.853 134.79 44.473 136.22 43.713 137.48C42.953 138.72 41.903 139.7 40.563 140.42C39.223 141.14 37.703 141.5 36.003 141.5ZM36.003 137.66C36.783 137.66 37.483 137.48 38.103 137.12C38.723 136.76 39.213 136.25 39.573 135.59C39.933 134.91 40.113 134.11 40.113 133.19C40.113 132.25 39.933 131.45 39.573 130.79C39.213 130.13 38.723 129.62 38.103 129.26C37.483 128.9 36.783 128.72 36.003 128.72C35.223 128.72 34.523 128.9 33.903 129.26C33.283 129.62 32.783 130.13 32.403 130.79C32.043 131.45 31.863 132.25 31.863 133.19C31.863 134.11 32.043 134.91 32.403 135.59C32.783 136.25 33.283 136.76 33.903 137.12C34.523 137.48 35.223 137.66 36.003 137.66ZM57.791 124.88C59.071 124.88 60.211 125.14 61.211 125.66C62.231 126.16 63.031 126.94 63.611 128C64.191 129.04 64.481 130.38 64.481 132.02V141.26H59.801V132.74C59.801 131.44 59.511 130.48 58.931 129.86C58.371 129.24 57.571 128.93 56.531 128.93C55.791 128.93 55.121 129.09 54.521 129.41C53.941 129.71 53.481 130.18 53.141 130.82C52.821 131.46 52.661 132.28 52.661 133.28V141.26H47.981V125.12H52.451V129.59L51.611 128.24C52.191 127.16 53.021 126.33 54.101 125.75C55.181 125.17 56.411 124.88 57.791 124.88ZM76.85 141.5C75.01 141.5 73.39 141.14 71.99 140.42C70.61 139.7 69.54 138.72 68.78 137.48C68.02 136.22 67.64 134.79 67.64 133.19C67.64 131.57 68.01 130.14 68.75 128.9C69.51 127.64 70.54 126.66 71.84 125.96C73.14 125.24 74.61 124.88 76.25 124.88C77.83 124.88 79.25 125.22 80.51 125.9C81.79 126.56 82.8 127.52 83.54 128.78C84.28 130.02 84.65 131.51 84.65 133.25C84.65 133.43 84.64 133.64 84.62 133.88C84.6 134.1 84.58 134.31 84.56 134.51H71.45V131.78H82.1L80.3 132.59C80.3 131.75 80.13 131.02 79.79 130.4C79.45 129.78 78.98 129.3 78.38 128.96C77.78 128.6 77.08 128.42 76.28 128.42C75.48 128.42 74.77 128.6 74.15 128.96C73.55 129.3 73.08 129.79 72.74 130.43C72.4 131.05 72.23 131.79 72.23 132.65V133.37C72.23 134.25 72.42 135.03 72.8 135.71C73.2 136.37 73.75 136.88 74.45 137.24C75.17 137.58 76.01 137.75 76.97 137.75C77.83 137.75 78.58 137.62 79.22 137.36C79.88 137.1 80.48 136.71 81.02 136.19L83.51 138.89C82.77 139.73 81.84 140.38 80.72 140.84C79.6 141.28 78.31 141.5 76.85 141.5ZM89.513 147.32C88.673 147.32 87.843 147.19 87.023 146.93C86.203 146.67 85.533 146.31 85.013 145.85L86.723 142.52C87.083 142.84 87.493 143.09 87.953 143.27C88.433 143.45 88.903 143.54 89.363 143.54C90.023 143.54 90.543 143.38 90.923 143.06C91.323 142.76 91.683 142.25 92.003 141.53L92.843 139.55L93.203 139.04L98.993 125.12H103.493L96.203 142.25C95.683 143.55 95.083 144.57 94.403 145.31C93.743 146.05 93.003 146.57 92.183 146.87C91.383 147.17 90.493 147.32 89.513 147.32ZM92.273 141.89L85.073 125.12H89.903L95.483 138.62L92.273 141.89ZM115.785 141.62C114.125 141.62 112.595 141.36 111.195 140.84C109.815 140.3 108.605 139.54 107.565 138.56C106.545 137.58 105.745 136.43 105.165 135.11C104.605 133.79 104.325 132.34 104.325 130.76C104.325 129.18 104.605 127.73 105.165 126.41C105.745 125.09 106.555 123.94 107.595 122.96C108.635 121.98 109.855 121.23 111.255 120.71C112.655 120.17 114.195 119.9 115.875 119.9C117.735 119.9 119.405 120.21 120.885 120.83C122.385 121.45 123.645 122.35 124.665 123.53L121.545 126.41C120.785 125.61 119.955 125.02 119.055 124.64C118.155 124.24 117.175 124.04 116.115 124.04C115.095 124.04 114.165 124.2 113.325 124.52C112.485 124.84 111.755 125.3 111.135 125.9C110.535 126.5 110.065 127.21 109.725 128.03C109.405 128.85 109.245 129.76 109.245 130.76C109.245 131.74 109.405 132.64 109.725 133.46C110.065 134.28 110.535 135 111.135 135.62C111.755 136.22 112.475 136.68 113.295 137C114.135 137.32 115.055 137.48 116.055 137.48C117.015 137.48 117.945 137.33 118.845 137.03C119.765 136.71 120.655 136.18 121.515 135.44L124.275 138.95C123.135 139.81 121.805 140.47 120.285 140.93C118.785 141.39 117.285 141.62 115.785 141.62ZM119.835 138.32V130.43H124.275V138.95L119.835 138.32ZM135.269 141.5C133.929 141.5 132.729 141.24 131.669 140.72C130.629 140.2 129.819 139.41 129.239 138.35C128.659 137.27 128.369 135.9 128.369 134.24V125.12H133.049V133.55C133.049 134.89 133.329 135.88 133.889 136.52C134.469 137.14 135.279 137.45 136.319 137.45C137.039 137.45 137.679 137.3 138.239 137C138.799 136.68 139.239 136.2 139.559 135.56C139.879 134.9 140.039 134.08 140.039 133.1V125.12H144.719V141.26H140.279V136.82L141.089 138.11C140.549 139.23 139.749 140.08 138.689 140.66C137.649 141.22 136.509 141.5 135.269 141.5ZM158.955 141.26V138.11L158.655 137.42V131.78C158.655 130.78 158.345 130 157.725 129.44C157.125 128.88 156.195 128.6 154.935 128.6C154.075 128.6 153.225 128.74 152.385 129.02C151.565 129.28 150.865 129.64 150.285 130.1L148.605 126.83C149.485 126.21 150.545 125.73 151.785 125.39C153.025 125.05 154.285 124.88 155.565 124.88C158.025 124.88 159.935 125.46 161.295 126.62C162.655 127.78 163.335 129.59 163.335 132.05V141.26H158.955ZM154.035 141.5C152.775 141.5 151.695 141.29 150.795 140.87C149.895 140.43 149.205 139.84 148.725 139.1C148.245 138.36 148.005 137.53 148.005 136.61C148.005 135.65 148.235 134.81 148.695 134.09C149.175 133.37 149.925 132.81 150.945 132.41C151.965 131.99 153.295 131.78 154.935 131.78H159.225V134.51H155.445C154.345 134.51 153.585 134.69 153.165 135.05C152.765 135.41 152.565 135.86 152.565 136.4C152.565 137 152.795 137.48 153.255 137.84C153.735 138.18 154.385 138.35 155.205 138.35C155.985 138.35 156.685 138.17 157.305 137.81C157.925 137.43 158.375 136.88 158.655 136.16L159.375 138.32C159.035 139.36 158.415 140.15 157.515 140.69C156.615 141.23 155.455 141.5 154.035 141.5ZM167.571 141.26V125.12H172.041V129.68L171.411 128.36C171.891 127.22 172.661 126.36 173.721 125.78C174.781 125.18 176.071 124.88 177.591 124.88V129.2C177.391 129.18 177.211 129.17 177.051 129.17C176.891 129.15 176.721 129.14 176.541 129.14C175.261 129.14 174.221 129.51 173.421 130.25C172.641 130.97 172.251 132.1 172.251 133.64V141.26H167.571ZM187.186 141.5C185.666 141.5 184.296 141.16 183.076 140.48C181.856 139.78 180.886 138.81 180.166 137.57C179.466 136.33 179.116 134.87 179.116 133.19C179.116 131.49 179.466 130.02 180.166 128.78C180.886 127.54 181.856 126.58 183.076 125.9C184.296 125.22 185.666 124.88 187.186 124.88C188.546 124.88 189.736 125.18 190.756 125.78C191.776 126.38 192.566 127.29 193.126 128.51C193.686 129.73 193.966 131.29 193.966 133.19C193.966 135.07 193.696 136.63 193.156 137.87C192.616 139.09 191.836 140 190.816 140.6C189.816 141.2 188.606 141.5 187.186 141.5ZM187.996 137.66C188.756 137.66 189.446 137.48 190.066 137.12C190.686 136.76 191.176 136.25 191.536 135.59C191.916 134.91 192.106 134.11 192.106 133.19C192.106 132.25 191.916 131.45 191.536 130.79C191.176 130.13 190.686 129.62 190.066 129.26C189.446 128.9 188.756 128.72 187.996 128.72C187.216 128.72 186.516 128.9 185.896 129.26C185.276 129.62 184.776 130.13 184.396 130.79C184.036 131.45 183.856 132.25 183.856 133.19C183.856 134.11 184.036 134.91 184.396 135.59C184.776 136.25 185.276 136.76 185.896 137.12C186.516 137.48 187.216 137.66 187.996 137.66ZM192.226 141.26V137.96L192.316 133.16L192.016 128.39V119H196.696V141.26H192.226Z" fill="white"/>
</svg>
