<svg width="24" height="24" viewBox="0 0 24 24" fill="none" xmlns="http://www.w3.org/2000/svg">
<path d="M0 12C0 5.3725 5.3725 0 12 0C18.6275 0 24 5.3725 24 12C24 18.6275 18.6275 24 12 24C5.3725 24 0 18.6275 0 12ZM12.2865 12.872C13.7735 13.238 14.219 13.723 14.219 14.542C14.219 15.393 13.6465 16.037 12.2865 16.1405V12.872ZM11.388 11.0355C10.116 10.717 9.6385 10.1845 9.6385 9.4605C9.6385 8.7365 10.243 8.077 11.3885 7.934L11.388 11.0355ZM12.2865 11.25V7.934C13.3045 8.061 14.02 8.6415 14.1235 9.644H15.7775C15.714 7.839 14.2745 6.646 12.2865 6.4865V5.143H11.388V6.4865C9.384 6.638 7.953 7.8145 7.953 9.596C7.953 11.21 9.0425 12.117 11.062 12.586L11.388 12.6655V16.1325C10.108 15.9975 9.5035 15.3135 9.3605 14.383H7.7145C7.7695 16.2915 9.3685 17.4285 11.388 17.58V18.9155H12.2865V17.58C14.3145 17.4365 15.905 16.3315 15.905 14.383C15.905 12.6895 14.76 11.8305 12.6685 11.3455L12.2865 11.25Z" fill="#EBB452"/>
</svg>
